<?xml version="1.0" standalone="no"?>
<!DOCTYPE svg PUBLIC "-//W3C//DTD SVG 20010904//EN"
 "http://www.w3.org/TR/2001/REC-SVG-20010904/DTD/svg10.dtd">
<svg version="1.0" xmlns="http://www.w3.org/2000/svg"
 width="500.000000pt" height="500.000000pt" viewBox="0 0 500.000000 500.000000"
 preserveAspectRatio="xMidYMid meet">

<g transform="translate(0.000000,500.000000) scale(0.100000,-0.100000)"
fill="#000000" stroke="none">
<path d="M3442 3746 l-82 -84 0 -65 c0 -126 54 -223 151 -272 55 -28 173 -52
209 -42 14 4 62 42 108 85 l83 77 -186 193 c-103 105 -190 192 -194 192 -4 0
-44 -38 -89 -84z"/>
<path d="M1946 3715 c-9 -9 -20 -35 -26 -58 -6 -23 -13 -49 -16 -57 -2 -9 -42
-33 -89 -54 -60 -27 -85 -44 -85 -56 0 -32 32 -32 92 -1 32 16 60 25 63 21 8
-14 -13 -169 -31 -231 -20 -67 -57 -141 -80 -160 -16 -13 -17 -8 -10 99 l7
112 -64 0 c-63 0 -82 8 -174 75 -19 13 -43 -19 -43 -56 0 -30 31 -59 62 -59
23 0 23 -13 -6 -96 -54 -157 -133 -292 -188 -320 -25 -13 -32 -13 -57 0 -48
25 -56 71 -15 87 99 37 172 168 134 239 -22 40 -103 29 -158 -23 -34 -31 -71
-109 -79 -164 -12 -90 -135 -270 -217 -318 -78 -46 -145 -24 -187 62 -21 41
-24 62 -23 143 2 193 85 384 239 549 128 137 225 160 225 53 0 -89 -101 -265
-182 -315 -52 -32 -54 -47 -7 -47 80 0 176 109 219 249 24 76 25 122 5 166
-70 145 -343 -17 -498 -295 -127 -229 -151 -469 -61 -611 49 -79 160 -108 244
-64 45 23 123 108 180 195 49 74 70 95 70 70 0 -6 12 -22 26 -35 55 -51 138
-24 227 76 50 56 55 60 62 40 4 -13 15 -21 30 -21 22 0 24 5 30 68 4 37 17
117 29 177 l21 110 38 3 37 3 1 -63 c2 -185 74 -229 145 -88 l33 64 16 -37
c21 -50 44 -61 82 -37 20 12 38 37 53 74 25 60 31 64 49 42 17 -21 63 -29 94
-17 15 6 39 31 55 56 28 45 28 45 47 25 30 -33 77 -27 114 15 43 50 93 151 89
183 -3 23 -8 19 -43 -42 -41 -71 -89 -121 -107 -110 -12 8 -6 56 23 172 11 46
18 86 15 89 -9 10 -56 -7 -77 -28 l-20 -20 -31 26 c-40 34 -71 27 -120 -26
-42 -46 -64 -105 -74 -199 -7 -64 -55 -190 -72 -190 -37 0 -20 380 18 402 8 4
55 26 103 48 68 31 88 45 85 58 -5 24 -52 19 -124 -13 l-56 -25 7 50 c6 46 5
50 -13 50 -11 0 -28 -7 -36 -15z m300 -199 c8 -32 -10 -116 -36 -166 -19 -38
-57 -80 -71 -80 -11 0 -29 60 -29 99 1 100 116 224 136 147z m-866 -374 c0
-25 -54 -108 -79 -122 -17 -9 -22 -8 -27 5 -11 27 6 68 42 102 39 37 64 42 64
15z"/>
<path d="M3126 3451 l-127 -125 78 -78 c43 -43 80 -78 83 -78 3 0 45 38 95 84
l89 83 -32 60 c-17 33 -38 87 -45 119 l-14 59 -127 -124z"/>
<path d="M2481 3254 c-346 -248 -576 -368 -1116 -580 -290 -113 -400 -178
-514 -300 -91 -98 -131 -180 -138 -285 -5 -66 -3 -84 17 -124 29 -59 59 -79
107 -72 52 9 100 59 119 125 9 29 14 56 11 58 -11 11 -35 -10 -65 -56 -61 -94
-118 -77 -116 35 2 127 100 260 261 354 40 23 198 91 350 152 349 139 537 231
728 356 205 135 475 364 475 403 0 18 -12 11 -119 -66z"/>
<path d="M3317 3182 l-87 -87 79 -79 79 -79 119 113 c65 62 121 118 126 126 8
13 6 14 -73 34 -24 7 -66 23 -92 36 -26 13 -51 24 -55 24 -5 0 -48 -39 -96
-88z"/>
<path d="M2382 2712 c-292 -296 -566 -577 -608 -627 -59 -70 -94 -125 -154
-245 -43 -85 -141 -265 -219 -400 -77 -134 -138 -246 -136 -248 2 -3 107 63
232 146 126 82 289 187 363 232 251 152 336 225 934 799 215 207 419 403 454
436 l63 60 -76 83 -77 82 -466 -458 c-257 -252 -502 -491 -545 -531 l-79 -72
-38 33 c-21 18 -39 35 -39 38 -1 7 825 811 976 950 l112 103 -71 79 c-39 43
-76 78 -82 77 -6 0 -251 -242 -544 -537z m-551 -752 c49 -14 160 -131 184
-194 39 -101 -29 -80 -186 56 -50 43 -102 86 -115 95 -29 19 -27 35 7 44 36
10 70 10 110 -1z m-51 -235 c15 -19 -20 -59 -241 -269 -148 -142 -192 -176
-148 -115 67 95 344 399 364 399 7 0 18 -7 25 -15z"/>
<path d="M4046 2618 c-18 -40 -59 -147 -91 -238 -31 -91 -69 -187 -82 -215
-44 -87 -92 -155 -109 -155 -15 0 -16 9 -11 68 3 37 16 105 28 151 21 81 21
85 3 98 -21 15 -50 9 -79 -17 -19 -18 -21 -18 -48 6 -15 13 -38 24 -51 24 -63
0 -147 -106 -165 -209 -21 -109 -32 -147 -59 -190 -41 -67 -52 -64 -52 13 0
79 25 274 43 335 l12 44 110 37 c109 36 132 54 102 78 -10 9 -30 7 -83 -8 -96
-28 -94 -28 -87 28 4 40 2 50 -12 55 -36 14 -63 -22 -97 -133 -2 -8 -42 -29
-89 -45 -55 -20 -85 -36 -87 -47 -5 -25 42 -34 96 -19 25 6 47 10 49 7 2 -2
-7 -63 -21 -134 -29 -156 -68 -243 -142 -319 -58 -62 -90 -68 -123 -27 -32 41
-27 60 22 82 74 33 137 122 137 195 0 53 -30 73 -104 69 -68 -4 -166 -152
-166 -251 0 -26 -15 -69 -45 -129 -72 -143 -139 -186 -189 -119 -31 42 -29
145 4 212 31 61 57 71 62 23 7 -70 84 -29 95 50 5 35 1 44 -22 67 -23 24 -32
27 -76 23 -42 -4 -57 -12 -90 -44 -78 -76 -126 -235 -100 -332 22 -85 92 -131
167 -110 47 13 116 77 161 150 33 53 53 72 53 49 0 -16 66 -51 98 -51 40 0
135 70 187 138 21 29 42 52 45 52 3 -1 14 -15 25 -33 40 -63 93 -39 157 72
l22 38 32 -33 c18 -20 41 -34 55 -34 38 0 85 35 105 79 19 40 34 53 34 28 0
-22 47 -59 75 -59 29 0 78 41 103 87 l16 30 4 -25 c11 -72 92 -81 92 -10 0 31
29 120 38 120 4 0 17 -19 30 -43 30 -56 106 -144 143 -162 56 -29 126 -12 168
41 18 23 45 85 66 153 13 41 -12 14 -56 -60 -22 -39 -51 -75 -64 -81 -53 -24
-122 24 -174 122 l-32 61 32 11 c77 27 134 64 154 101 23 42 16 63 -28 85 -36
17 -89 2 -157 -43 -29 -19 -53 -35 -55 -35 -6 0 34 133 76 252 34 96 39 121
29 133 -27 33 -50 18 -84 -57z m128 -296 c12 -20 -37 -74 -87 -97 -109 -51
-111 -20 -4 56 72 50 82 55 91 41z m-514 -52 c35 -22 -1 -195 -54 -256 -37
-43 -60 -39 -77 13 -21 66 10 172 66 229 26 26 41 29 65 14z m-555 -207 c-11
-45 -39 -86 -75 -111 -18 -12 -35 -20 -38 -17 -10 9 30 95 58 125 37 39 65 41
55 3z"/>
<path d="M4000 1860 c-208 -39 -443 -111 -682 -209 -69 -29 -312 -146 -540
-260 -572 -287 -715 -347 -937 -390 -250 -50 -475 -3 -568 117 -36 47 -47 43
-32 -13 14 -51 89 -123 169 -161 160 -78 364 -84 615 -20 251 65 501 179 950
431 411 231 664 348 967 450 103 34 184 65 181 69 -8 8 -10 8 -123 -14z"/>
</g>
</svg>
