<svg width="503" height="394" viewBox="0 0 503 394" fill="none" xmlns="http://www.w3.org/2000/svg">
<path d="M373.933 11.2L363 22.4V31.0667C363 47.8667 370.2 60.8 383.133 67.3334C390.467 71.0667 406.2 74.2667 411 72.9334C412.867 72.4 419.267 67.3334 425.4 61.6L436.467 51.3334L411.667 25.6C397.933 11.6 386.333 3.28012e-05 385.8 3.28012e-05C385.267 3.28012e-05 379.933 5.0667 373.933 11.2Z" fill="#081504"/>
<path d="M174.467 15.3333C173.267 16.5333 171.8 20 171 23.0666C170.2 26.1333 169.267 29.6 168.867 30.6666C168.6 31.8666 163.267 35.0666 157 37.8666C149 41.4666 145.667 43.7333 145.667 45.3333C145.667 49.6 149.933 49.6 157.933 45.4666C162.2 43.3333 165.933 42.1333 166.333 42.6666C167.4 44.5333 164.6 65.2 162.2 73.4667C159.533 82.4 154.6 92.2667 151.533 94.8C149.4 96.5333 149.267 95.8667 150.2 81.6L151.133 66.6667H142.6C134.2 66.6667 131.667 65.6 119.4 56.6666C116.867 54.9333 113.667 59.2 113.667 64.1333C113.667 68.1333 117.8 72 121.933 72C125 72 125 73.7333 121.133 84.8C113.933 105.733 103.4 123.733 96.0667 127.467C92.7333 129.2 91.8 129.2 88.4667 127.467C82.0667 124.133 81 118 86.4667 115.867C99.6667 110.933 109.4 93.4667 104.333 84C101.4 78.6667 90.6 80.1333 83.2667 87.0667C78.7333 91.2 73.8 101.6 72.7333 108.933C71.1333 120.933 54.7333 144.933 43.8 151.333C33.4 157.467 24.4667 154.533 18.8667 143.067C16.0667 137.6 15.6667 134.8 15.8 124C16.0667 98.2667 27.1333 72.8 47.6667 50.8C64.7333 32.5333 77.6667 29.4666 77.6667 43.7333C77.6667 55.6 64.2 79.0667 53.4 85.7333C46.4667 90 46.2 92 52.4667 92C63.1333 92 75.9333 77.4667 81.6667 58.8C84.8667 48.6666 85 42.5333 82.3333 36.6666C73 17.3333 36.6 38.9333 15.9333 76C-1.00001 106.533 -4.20001 138.533 7.79999 157.467C14.3333 168 29.1333 171.867 40.3333 166C46.3333 162.933 56.7333 151.6 64.3333 140C70.8667 130.133 73.6667 127.333 73.6667 130.667C73.6667 131.467 75.2667 133.6 77.1333 135.333C84.4667 142.133 95.5333 138.533 107.4 125.2C114.067 117.733 114.733 117.2 115.667 119.867C116.2 121.6 117.667 122.667 119.667 122.667C122.6 122.667 122.867 122 123.667 113.6C124.2 108.667 125.933 98 127.533 90L130.333 75.3333L135.4 74.9333L140.333 74.5333L140.467 82.9333C140.733 107.6 150.333 113.467 159.8 94.6667L164.2 86.1333L166.333 91.0667C169.133 97.7333 172.2 99.2 177.267 96C179.933 94.4 182.333 91.0667 184.333 86.1333C187.667 78.1333 188.467 77.6 190.867 80.5333C193.133 83.3333 199.267 84.4 203.4 82.8C205.4 82 208.6 78.6667 210.733 75.3333C214.467 69.3333 214.467 69.3333 217 72C221 76.4 227.267 75.6 232.2 70C237.933 63.3333 244.6 49.8666 244.067 45.6C243.667 42.5333 243 43.0666 238.333 51.2C232.867 60.6666 226.467 67.3333 224.067 65.8667C222.467 64.8 223.267 58.4 227.133 42.9333C228.6 36.8 229.533 31.4666 229.133 31.0666C227.933 29.7333 221.667 32 218.867 34.8L216.2 37.4666L212.067 34C206.733 29.4666 202.6 30.4 196.067 37.4666C190.467 43.6 187.533 51.4666 186.2 64C185.267 72.5333 178.867 89.3333 176.6 89.3333C171.667 89.3333 173.933 38.6666 179 35.7333C180.067 35.2 186.333 32.2666 192.733 29.3333C201.8 25.2 204.467 23.3333 204.067 21.6C203.4 18.4 197.133 19.0666 187.533 23.3333L180.067 26.6666L181 20C181.8 13.8666 181.667 13.3333 179.267 13.3333C177.8 13.3333 175.533 14.2666 174.467 15.3333ZM214.467 41.8666C215.533 46.1333 213.133 57.3333 209.667 64C207.133 69.0667 202.067 74.6667 200.2 74.6667C198.733 74.6667 196.333 66.6667 196.333 61.4666C196.467 48.1333 211.8 31.6 214.467 41.8666ZM99 91.7333C99 95.0667 91.8 106.133 88.4667 108C86.2 109.2 85.5333 109.067 84.8667 107.333C83.4 103.733 85.6667 98.2667 90.4667 93.7333C95.6667 88.8 99 88.1333 99 91.7333Z" fill="#081504"/>
<path d="M331.8 50.5333L314.867 67.2L325.267 77.6C331 83.3333 335.933 88 336.333 88C336.733 88 342.333 82.9333 349 76.8L360.867 65.7333L356.6 57.7333C354.333 53.3333 351.533 46.1333 350.6 41.8667L348.733 34L331.8 50.5333Z" fill="#081504"/>
<path d="M245.8 76.8C199.667 109.867 169 125.867 97 154.133C58.3333 169.2 43.6667 177.867 28.4667 194.133C16.3333 207.2 11 218.133 10.0667 232.133C9.39999 240.933 9.66666 243.333 12.3333 248.667C16.2 256.533 20.2 259.2 26.6 258.267C33.5333 257.067 39.9333 250.4 42.4667 241.6C43.6667 237.733 44.3333 234.133 43.9333 233.867C42.4667 232.4 39.2667 235.2 35.2667 241.333C27.1333 253.867 19.5333 251.6 19.8 236.667C20.0667 219.733 33.1333 202 54.6 189.467C59.9333 186.4 81 177.333 101.267 169.2C147.8 150.667 172.867 138.4 198.333 121.733C225.667 103.733 261.667 73.2 261.667 68C261.667 65.6 260.067 66.5334 245.8 76.8Z" fill="#081504"/>
<path d="M357.267 86.4L345.667 98L356.2 108.533L366.733 119.067L382.6 104C391.267 95.7333 398.733 88.2666 399.4 87.2C400.467 85.4666 400.2 85.3333 389.667 82.6666C386.467 81.7333 380.867 79.6 377.4 77.8666C373.933 76.1333 370.6 74.6666 370.067 74.6666C369.4 74.6666 363.667 79.8666 357.267 86.4Z" fill="#081504"/>
<path d="M232.6 149.067C193.667 188.533 157.133 226 151.533 232.667C143.667 242 139 249.333 131 265.333C125.267 276.667 112.2 300.667 101.8 318.667C91.5333 336.533 83.4 351.467 83.6667 351.733C83.9333 352.133 97.9333 343.333 114.6 332.267C131.4 321.333 153.133 307.333 163 301.333C196.467 281.067 207.8 271.333 287.533 194.8C316.2 167.2 343.4 141.067 348.067 136.667L356.467 128.667L346.333 117.6L336.067 106.667L273.933 167.733C239.667 201.333 207 233.2 201.267 238.533L190.733 248.133L185.667 243.733C182.867 241.333 180.467 239.067 180.467 238.667C180.333 237.733 290.467 130.533 310.6 112L325.533 98.2667L316.067 87.7333C310.867 82 305.933 77.3333 305.133 77.4667C304.333 77.4667 271.667 109.733 232.6 149.067ZM159.133 249.333C165.667 251.2 180.467 266.8 183.667 275.2C188.867 288.667 179.8 285.867 158.867 267.733C152.2 262 145.267 256.267 143.533 255.067C139.667 252.533 139.933 250.4 144.467 249.2C149.267 247.867 153.8 247.867 159.133 249.333ZM152.333 280.667C154.333 283.2 149.667 288.533 120.2 316.533C100.467 335.467 94.6 340 100.467 331.867C109.4 319.2 146.333 278.667 149 278.667C149.933 278.667 151.4 279.6 152.333 280.667Z" fill="#081504"/>
<path d="M454.467 161.6C452.067 166.933 446.6 181.2 442.333 193.333C438.2 205.467 433.133 218.267 431.4 222C425.533 233.6 419.133 242.667 416.867 242.667C414.867 242.667 414.733 241.467 415.4 233.6C415.8 228.667 417.533 219.6 419.133 213.467C421.933 202.667 421.933 202.133 419.533 200.4C416.733 198.4 412.867 199.2 409 202.667C406.467 205.067 406.2 205.067 402.6 201.867C400.6 200.133 397.533 198.667 395.8 198.667C387.4 198.667 376.2 212.8 373.8 226.533C371 241.067 369.533 246.133 365.933 251.867C360.467 260.8 359 260.4 359 250.133C359 239.6 362.333 213.6 364.733 205.467L366.333 199.6L381 194.667C395.533 189.867 398.6 187.467 394.6 184.267C393.267 183.067 390.6 183.333 383.533 185.333C370.733 189.067 371 189.067 371.933 181.6C372.467 176.267 372.2 174.933 370.333 174.267C365.533 172.4 361.933 177.2 357.4 192C357.133 193.067 351.8 195.867 345.533 198C338.2 200.667 334.2 202.8 333.933 204.267C333.267 207.6 339.533 208.8 346.733 206.8C350.067 206 353 205.467 353.267 205.867C353.533 206.133 352.333 214.267 350.467 223.733C346.6 244.533 341.4 256.133 331.533 266.267C323.8 274.533 319.533 275.333 315.133 269.867C310.867 264.4 311.533 261.867 318.067 258.933C327.933 254.533 336.333 242.667 336.333 232.933C336.333 225.867 332.333 223.2 322.467 223.733C313.4 224.267 300.333 244 300.333 257.2C300.333 260.667 298.333 266.4 294.333 274.4C284.733 293.467 275.8 299.2 269.133 290.267C265 284.667 265.267 270.933 269.667 262C273.8 253.867 277.267 252.533 277.933 258.933C278.867 268.267 289.133 262.8 290.6 252.267C291.267 247.6 290.733 246.4 287.667 243.333C284.6 240.133 283.4 239.733 277.533 240.267C271.933 240.8 269.933 241.867 265.533 246.133C255.133 256.267 248.733 277.467 252.2 290.4C255.133 301.733 264.467 307.867 274.467 305.067C280.733 303.333 289.933 294.8 295.933 285.067C300.333 278 303 275.467 303 278.533C303 280.667 311.8 285.333 316.067 285.333C321.4 285.333 334.067 276 341 266.933C343.8 263.067 346.6 260 347 260C347.4 260.133 348.867 262 350.333 264.4C355.667 272.8 362.733 269.6 371.267 254.8L374.2 249.733L378.467 254.133C380.867 256.8 383.933 258.667 385.8 258.667C390.867 258.667 397.133 254 399.8 248.133C402.333 242.8 404.333 241.067 404.333 244.4C404.333 247.333 410.6 252.267 414.333 252.267C418.2 252.267 424.733 246.8 428.067 240.667L430.2 236.667L430.733 240C432.2 249.6 443 250.8 443 241.333C443 237.2 446.867 225.333 448.067 225.333C448.6 225.333 450.333 227.867 452.067 231.067C456.067 238.533 466.2 250.267 471.133 252.667C478.6 256.533 487.933 254.267 493.533 247.2C495.933 244.133 499.533 235.867 502.333 226.8C504.067 221.333 500.733 224.933 494.867 234.8C491.933 240 488.067 244.8 486.333 245.6C479.267 248.8 470.067 242.4 463.133 229.333L458.867 221.2L463.133 219.733C473.4 216.133 481 211.2 483.667 206.267C486.733 200.667 485.8 197.867 479.933 194.933C475.133 192.667 468.067 194.667 459 200.667C455.133 203.2 451.933 205.333 451.667 205.333C450.867 205.333 456.2 187.6 461.8 171.733C466.333 158.933 467 155.6 465.667 154C462.067 149.6 459 151.6 454.467 161.6ZM471.533 201.067C473.133 203.733 466.6 210.933 459.933 214C445.4 220.8 445.133 216.667 459.4 206.533C469 199.867 470.333 199.2 471.533 201.067ZM403 208C407.667 210.933 402.867 234 395.8 242.133C390.867 247.867 387.8 247.333 385.533 240.4C382.733 231.6 386.867 217.467 394.333 209.867C397.8 206.4 399.8 206 403 208ZM329 235.6C327.533 241.6 323.8 247.067 319 250.4C316.6 252 314.333 253.067 313.933 252.667C312.6 251.467 317.933 240 321.667 236C326.6 230.8 330.333 230.533 329 235.6Z" fill="#081504"/>
<path d="M448.333 262.667C420.6 267.867 389.267 277.467 357.4 290.533C348.2 294.4 315.8 310 285.4 325.2C209.133 363.467 190.067 371.467 160.467 377.2C127.133 383.867 97.1333 377.6 84.7333 361.6C79.9333 355.333 78.4666 355.867 80.4666 363.333C82.3333 370.133 92.3333 379.733 103 384.8C124.333 395.2 151.533 396 185 387.467C218.467 378.8 251.8 363.6 311.667 330C366.467 299.2 400.2 283.6 440.6 270C454.333 265.467 465.133 261.333 464.733 260.8C463.667 259.733 463.4 259.733 448.333 262.667Z" fill="#081504"/>
<path d="M146.5 50L148.184 55.1824H153.633L149.225 58.3853L150.908 63.5676L146.5 60.3647L142.092 63.5676L143.775 58.3853L139.367 55.1824H144.816L146.5 50Z" fill="#081504"/>
</svg>
